  0
SECTION
  2
HEADER
  9
$ACADVER
  1
AC1027
  9
$ACADMAINTVER
 70
105
  9
$DWGCODEPAGE
  3
ANSI_1252
  9
$LASTSAVEDBY
  1
ezdxf
  9
$REQUIREDVERSIONS
160
0
  9
$INSBASE
 10
0.0
 20
0.0
 30
0.0
  9
$EXTMIN
 10
1e+20
 20
1e+20
 30
1e+20
  9
$EXTMAX
 10
-1e+20
 20
-1e+20
 30
-1e+20
  9
$LIMMIN
 10
0.0
 20
0.0
  9
$LIMMAX
 10
420.0
 20
297.0
  9
$ORTHOMODE
 70
0
  9
$REGENMODE
 70
1
  9
$FILLMODE
 70
1
  9
$QTEXTMODE
 70
0
  9
$MIRRTEXT
 70
1
  9
$LTSCALE
 40
1.0
  9
$ATTMODE
 70
1
  9
$TEXTSIZE
 40
2.5
  9
$TRACEWID
 40
1.0
  9
$TEXTSTYLE
  7
Standard
  9
$CLAYER
  8
0
  9
$CELTYPE
  6
ByLayer
  9
$CECOLOR
 62
256
  9
$CELTSCALE
 40
1.0
  9
$DISPSILH
 70
0
  9
$DIMSCALE
 40
1.0
  9
$DIMASZ
 40
2.5
  9
$DIMEXO
 40
0.625
  9
$DIMDLI
 40
3.75
  9
$DIMRND
 40
0.0
  9
$DIMDLE
 40
0.0
  9
$DIMEXE
 40
1.25
  9
$DIMTP
 40
0.0
  9
$DIMTM
 40
0.0
  9
$DIMTXT
 40
2.5
  9
$DIMCEN
 40
2.5
  9
$DIMTSZ
 40
0.0
  9
$DIMTOL
 70
0
  9
$DIMLIM
 70
0
  9
$DIMTIH
 70
0
  9
$DIMTOH
 70
0
  9
$DIMSE1
 70
0
  9
$DIMSE2
 70
0
  9
$DIMTAD
 70
1
  9
$DIMZIN
 70
8
  9
$DIMBLK
  1

  9
$DIMASO
 70
1
  9
$DIMSHO
 70
1
  9
$DIMPOST
  1

  9
$DIMAPOST
  1

  9
$DIMALT
 70
0
  9
$DIMALTD
 70
3
  9
$DIMALTF
 40
0.03937007874
  9
$DIMLFAC
 40
1.0
  9
$DIMTOFL
 70
1
  9
$DIMTVP
 40
0.0
  9
$DIMTIX
 70
0
  9
$DIMSOXD
 70
0
  9
$DIMSAH
 70
0
  9
$DIMBLK1
  1

  9
$DIMBLK2
  1

  9
$DIMSTYLE
  2
ISO-25
  9
$DIMCLRD
 70
0
  9
$DIMCLRE
 70
0
  9
$DIMCLRT
 70
0
  9
$DIMTFAC
 40
1.0
  9
$DIMGAP
 40
0.625
  9
$DIMJUST
 70
0
  9
$DIMSD1
 70
0
  9
$DIMSD2
 70
0
  9
$DIMTOLJ
 70
0
  9
$DIMTZIN
 70
8
  9
$DIMALTZ
 70
0
  9
$DIMALTTZ
 70
0
  9
$DIMUPT
 70
0
  9
$DIMDEC
 70
2
  9
$DIMTDEC
 70
2
  9
$DIMALTU
 70
2
  9
$DIMALTTD
 70
3
  9
$DIMTXSTY
  7
Standard
  9
$DIMAUNIT
 70
0
  9
$DIMADEC
 70
0
  9
$DIMALTRND
 40
0.0
  9
$DIMAZIN
 70
0
  9
$DIMDSEP
 70
44
  9
$DIMATFIT
 70
3
  9
$DIMFRAC
 70
0
  9
$DIMLDRBLK
  1

  9
$DIMLUNIT
 70
2
  9
$DIMLWD
 70
-2
  9
$DIMLWE
 70
-2
  9
$DIMTMOVE
 70
0
  9
$DIMFXL
 40
1.0
  9
$DIMFXLON
 70
0
  9
$DIMJOGANG
 40
0.785398163397
  9
$DIMTFILL
 70
0
  9
$DIMTFILLCLR
 70
0
  9
$DIMARCSYM
 70
0
  9
$DIMLTYPE
  6

  9
$DIMLTEX1
  6

  9
$DIMLTEX2
  6

  9
$DIMTXTDIRECTION
 70
0
  9
$LUNITS
 70
2
  9
$LUPREC
 70
4
  9
$SKETCHINC
 40
1.0
  9
$FILLETRAD
 40
10.0
  9
$AUNITS
 70
0
  9
$AUPREC
 70
2
  9
$MENU
  1
.
  9
$ELEVATION
 40
0.0
  9
$PELEVATION
 40
0.0
  9
$THICKNESS
 40
0.0
  9
$LIMCHECK
 70
0
  9
$CHAMFERA
 40
0.0
  9
$CHAMFERB
 40
0.0
  9
$CHAMFERC
 40
0.0
  9
$CHAMFERD
 40
0.0
  9
$SKPOLY
 70
0
  9
$TDCREATE
 40
2461278.7778703705
  9
$TDUCREATE
 40
2458532.153996898
  9
$TDUPDATE
 40
2461278.7778703705
  9
$TDUUPDATE
 40
2458532.1544311
  9
$TDINDWG
 40
0.0
  9
$TDUSRTIMER
 40
0.0
  9
$USRTIMER
 70
1
  9
$ANGBASE
 50
0.0
  9
$ANGDIR
 70
0
  9
$PDMODE
 70
0
  9
$PDSIZE
 40
0.0
  9
$PLINEWID
 40
0.0
  9
$SPLFRAME
 70
0
  9
$SPLINETYPE
 70
6
  9
$SPLINESEGS
 70
8
  9
$HANDSEED
  5
40
  9
$SURFTAB1
 70
6
  9
$SURFTAB2
 70
6
  9
$SURFTYPE
 70
6
  9
$SURFU
 70
6
  9
$SURFV
 70
6
  9
$UCSBASE
  2

  9
$UCSNAME
  2

  9
$UCSORG
 10
0.0
 20
0.0
 30
0.0
  9
$UCSXDIR
 10
1.0
 20
0.0
 30
0.0
  9
$UCSYDIR
 10
0.0
 20
1.0
 30
0.0
  9
$UCSORTHOREF
  2

  9
$UCSORTHOVIEW
 70
0
  9
$UCSORGTOP
 10
0.0
 20
0.0
 30
0.0
  9
$UCSORGBOTTOM
 10
0.0
 20
0.0
 30
0.0
  9
$UCSORGLEFT
 10
0.0
 20
0.0
 30
0.0
  9
$UCSORGRIGHT
 10
0.0
 20
0.0
 30
0.0
  9
$UCSORGFRONT
 10
0.0
 20
0.0
 30
0.0
  9
$UCSORGBACK
 10
0.0
 20
0.0
 30
0.0
  9
$PUCSBASE
  2

  9
$PUCSNAME
  2

  9
$PUCSORG
 10
0.0
 20
0.0
 30
0.0
  9
$PUCSXDIR
 10
1.0
 20
0.0
 30
0.0
  9
$PUCSYDIR
 10
0.0
 20
1.0
 30
0.0
  9
$PUCSORTHOREF
  2

  9
$PUCSORTHOVIEW
 70
0
  9
$PUCSORGTOP
 10
0.0
 20
0.0
 30
0.0
  9
$PUCSORGBOTTOM
 10
0.0
 20
0.0
 30
0.0
  9
$PUCSORGLEFT
 10
0.0
 20
0.0
 30
0.0
  9
$PUCSORGRIGHT
 10
0.0
 20
0.0
 30
0.0
  9
$PUCSORGFRONT
 10
0.0
 20
0.0
 30
0.0
  9
$PUCSORGBACK
 10
0.0
 20
0.0
 30
0.0
  9
$USERI1
 70
0
  9
$USERI2
 70
0
  9
$USERI3
 70
0
  9
$USERI4
 70
0
  9
$USERI5
 70
0
  9
$USERR1
 40
0.0
  9
$USERR2
 40
0.0
  9
$USERR3
 40
0.0
  9
$USERR4
 40
0.0
  9
$USERR5
 40
0.0
  9
$WORLDVIEW
 70
1
  9
$SHADEDGE
 70
3
  9
$SHADEDIF
 70
70
  9
$TILEMODE
 70
1
  9
$MAXACTVP
 70
64
  9
$PINSBASE
 10
0.0
 20
0.0
 30
0.0
  9
$PLIMCHECK
 70
0
  9
$PEXTMIN
 10
1e+20
 20
1e+20
 30
1e+20
  9
$PEXTMAX
 10
-1e+20
 20
-1e+20
 30
-1e+20
  9
$PLIMMIN
 10
0.0
 20
0.0
  9
$PLIMMAX
 10
420.0
 20
297.0
  9
$UNITMODE
 70
0
  9
$VISRETAIN
 70
1
  9
$PLINEGEN
 70
0
  9
$PSLTSCALE
 70
1
  9
$TREEDEPTH
 70
3020
  9
$CMLSTYLE
  2
Standard
  9
$CMLJUST
 70
0
  9
$CMLSCALE
 40
20.0
  9
$PROXYGRAPHICS
 70
1
  9
$MEASUREMENT
 70
1
  9
$CELWEIGHT
370
-1
  9
$ENDCAPS
280
0
  9
$JOINSTYLE
280
0
  9
$LWDISPLAY
290
0
  9
$INSUNITS
 70
6
  9
$HYPERLINKBASE
  1

  9
$STYLESHEET
  1

  9
$XEDIT
290
1
  9
$CEPSNTYPE
380
0
  9
$PSTYLEMODE
290
1
  9
$FINGERPRINTGUID
  2
{0D09F060-F4C5-43AA-81F9-1BEE02B14F09}
  9
$VERSIONGUID
  2
{CD83F736-06CC-4F18-BECE-E7F8CF16C1C0}
  9
$EXTNAMES
290
1
  9
$PSVPSCALE
 40
0.0
  9
$OLESTARTUP
290
0
  9
$SORTENTS
280
127
  9
$INDEXCTL
280
0
  9
$HIDETEXT
280
1
  9
$XCLIPFRAME
280
1
  9
$HALOGAP
280
0
  9
$OBSCOLOR
 70
257
  9
$OBSLTYPE
280
0
  9
$INTERSECTIONDISPLAY
280
0
  9
$INTERSECTIONCOLOR
 70
257
  9
$DIMASSOC
280
2
  9
$PROJECTNAME
  1

  9
$CAMERADISPLAY
290
0
  9
$LENSLENGTH
 40
50.0
  9
$CAMERAHEIGHT
 40
0.0
  9
$STEPSPERSEC
 40
24.0
  9
$STEPSIZE
 40
100.0
  9
$3DDWFPREC
 40
2.0
  9
$PSOLWIDTH
 40
0.005
  9
$PSOLHEIGHT
 40
0.08
  9
$LOFTANG1
 40
1.570796326795
  9
$LOFTANG2
 40
1.570796326795
  9
$LOFTMAG1
 40
0.0
  9
$LOFTMAG2
 40
0.0
  9
$LOFTPARAM
 70
7
  9
$LOFTNORMALS
280
1
  9
$LATITUDE
 40
37.795
  9
$LONGITUDE
 40
-122.394
  9
$NORTHDIRECTION
 40
0.0
  9
$TIMEZONE
 70
-8000
  9
$LIGHTGLYPHDISPLAY
280
1
  9
$TILEMODELIGHTSYNCH
280
1
  9
$CMATERIAL
347
20
  9
$SOLIDHIST
280
0
  9
$SHOWHIST
280
1
  9
$DWFFRAME
280
2
  9
$DGNFRAME
280
2
  9
$REALWORLDSCALE
290
1
  9
$INTERFERECOLOR
 62
256
  9
$CSHADOW
280
0
  9
$SHADOWPLANELOCATION
 40
0.0
  0
ENDSEC
  0
SECTION
  2
CLASSES
  0
CLASS
  1
ACDBDICTIONARYWDFLT
  2
AcDbDictionaryWithDefault
  3
ObjectDBX Classes
 90
0
 91
0
280
0
281
0
  0
CLASS
  1
SUN
  2
AcDbSun
  3
SCENEOE
 90
1153
 91
0
280
0
281
0
  0
CLASS
  1
VISUALSTYLE
  2
AcDbVisualStyle
  3
ObjectDBX Classes
 90
4095
 91
0
280
0
281
0
  0
CLASS
  1
MATERIAL
  2
AcDbMaterial
  3
ObjectDBX Classes
 90
1153
 91
0
280
0
281
0
  0
CLASS
  1
SCALE
  2
AcDbScale
  3
ObjectDBX Classes
 90
1153
 91
0
280
0
281
0
  0
CLASS
  1
TABLESTYLE
  2
AcDbTableStyle
  3
ObjectDBX Classes
 90
4095
 91
0
280
0
281
0
  0
CLASS
  1
MLEADERSTYLE
  2
AcDbMLeaderStyle
  3
ACDB_MLEADERSTYLE_CLASS
 90
4095
 91
0
280
0
281
0
  0
CLASS
  1
DICTIONARYVAR
  2
AcDbDictionaryVar
  3
ObjectDBX Classes
 90
0
 91
0
280
0
281
0
  0
CLASS
  1
CELLSTYLEMAP
  2
AcDbCellStyleMap
  3
ObjectDBX Classes
 90
1152
 91
0
280
0
281
0
  0
CLASS
  1
MENTALRAYRENDERSETTINGS
  2
AcDbMentalRayRenderSettings
  3
SCENEOE
 90
1024
 91
0
280
0
281
0
  0
CLASS
  1
ACDBDETAILVIEWSTYLE
  2
AcDbDetailViewStyle
  3
ObjectDBX Classes
 90
1025
 91
0
280
0
281
0
  0
CLASS
  1
ACDBSECTIONVIEWSTYLE
  2
AcDbSectionViewStyle
  3
ObjectDBX Classes
 90
1025
 91
0
280
0
281
0
  0
CLASS
  1
RASTERVARIABLES
  2
AcDbRasterVariables
  3
ISM
 90
0
 91
0
280
0
281
0
  0
CLASS
  1
LAYOUT
  2
AcDbLayout
  3
ObjectDBX Classes
 90
0
 91
0
280
0
281
0
  0
CLASS
  1
ACDBPLACEHOLDER
  2
AcDbPlaceHolder
  3
ObjectDBX Classes
 90
0
 91
0
280
0
281
0
  0
ENDSEC
  0
SECTION
  2
TABLES
  0
TABLE
  2
VPORT
  5
8
330
0
100
AcDbSymbolTable
 70
1
  0
VPORT
  5
23
330
8
100
AcDbSymbolTableRecord
100
AcDbViewportTableRecord
  2
*Active
 70
0
 10
0.0
 20
0.0
 11
1.0
 21
1.0
 12
0.0
 22
0.0
 13
0.0
 23
0.0
 14
0.5
 24
0.5
 15
0.5
 25
0.5
 16
0.0
 26
0.0
 36
1.0
 17
0.0
 27
0.0
 37
0.0
 40
1000.0
 41
1.34
 42
50.0
 43
0.0
 44
0.0
 50
0.0
 51
0.0
 71
0
 72
1000
 73
1
 74
3
 75
0
 76
0
 77
0
 78
0
281
0
 65
0
146
0.0
  0
ENDTAB
  0
TABLE
  2
LTYPE
  5
2
330
0
100
AcDbSymbolTable
 70
3
  0
LTYPE
  5
24
330
2
100
AcDbSymbolTableRecord
100
AcDbLinetypeTableRecord
  2
ByBlock
 70
0
  3

 72
65
 73
0
 40
0.0
  0
LTYPE
  5
25
330
2
100
AcDbSymbolTableRecord
100
AcDbLinetypeTableRecord
  2
ByLayer
 70
0
  3

 72
65
 73
0
 40
0.0
  0
LTYPE
  5
26
330
2
100
AcDbSymbolTableRecord
100
AcDbLinetypeTableRecord
  2
Continuous
 70
0
  3

 72
65
 73
0
 40
0.0
  0
ENDTAB
  0
TABLE
  2
LAYER
  5
1
330
0
100
AcDbSymbolTable
 70
2
  0
LAYER
  5
27
330
1
100
AcDbSymbolTableRecord
100
AcDbLayerTableRecord
  2
0
 70
0
 62
7
  6
Continuous
370
-3
390
13
347
21
  0
LAYER
  5
28
330
1
100
AcDbSymbolTableRecord
100
AcDbLayerTableRecord
  2
Defpoints
 70
0
 62
7
  6
Continuous
290
0
370
-3
390
13
347
21
  0
ENDTAB
  0
TABLE
  2
STYLE
  5
5
330
0
100
AcDbSymbolTable
 70
1
  0
STYLE
  5
29
330
5
100
AcDbSymbolTableRecord
100
AcDbTextStyleTableRecord
  2
Standard
 70
0
 40
0.0
 41
1.0
 50
0.0
 71
0
 42
2.5
  3
txt
  4

  0
ENDTAB
  0
TABLE
  2
VIEW
  5
7
330
0
100
AcDbSymbolTable
 70
0
  0
ENDTAB
  0
TABLE
  2
UCS
  5
6
330
0
100
AcDbSymbolTable
 70
0
  0
ENDTAB
  0
TABLE
  2
APPID
  5
3
330
0
100
AcDbSymbolTable
 70
3
  0
APPID
  5
2A
330
3
100
AcDbSymbolTableRecord
100
AcDbRegAppTableRecord
  2
ACAD
 70
0
  0
APPID
  5
3D
330
3
100
AcDbSymbolTableRecord
100
AcDbRegAppTableRecord
  2
HATCHBACKGROUNDCOLOR
 70
0
  0
APPID
  5
3E
330
3
100
AcDbSymbolTableRecord
100
AcDbRegAppTableRecord
  2
EZDXF
 70
0
  0
ENDTAB
  0
TABLE
  2
DIMSTYLE
  5
4
330
0
100
AcDbSymbolTable
 70
1
100
AcDbDimStyleTable
  0
DIMSTYLE
105
2B
330
4
100
AcDbSymbolTableRecord
100
AcDbDimStyleTableRecord
  2
Standard
 70
0
 40
1.0
 41
2.5
 42
0.625
 43
3.75
 44
1.25
 45
0.0
 46
0.0
 47
0.0
 48
0.0
 49
2.5
140
2.5
141
2.5
142
0.0
143
0.03937007874
144
1.0
145
0.0
146
1.0
147
0.625
148
0.0
 69
0
 70
0
 71
0
 72
0
 73
0
 74
0
 75
0
 76
0
 77
1
 78
8
 79
3
170
0
171
3
172
1
173
0
174
0
175
0
176
0
177
0
178
0
179
2
271
2
272
2
273
2
274
3
275
0
276
0
277
2
278
44
279
0
280
0
281
0
282
0
283
0
284
8
285
0
286
0
288
0
289
3
290
0
371
-2
372
-2
  0
ENDTAB
  0
TABLE
  2
BLOCK_RECORD
  5
9
330
0
100
AcDbSymbolTable
 70
2
  0
BLOCK_RECORD
  5
17
330
9
100
AcDbSymbolTableRecord
100
AcDbBlockTableRecord
  2
*Model_Space
340
1A
 70
0
280
1
281
0
  0
BLOCK_RECORD
  5
1B
330
9
100
AcDbSymbolTableRecord
100
AcDbBlockTableRecord
  2
*Paper_Space
340
1E
 70
0
280
1
281
0
  0
ENDTAB
  0
ENDSEC
  0
SECTION
  2
BLOCKS
  0
BLOCK
  5
18
330
17
100
AcDbEntity
  8
0
100
AcDbBlockBegin
  2
*Model_Space
 70
0
 10
0.0
 20
0.0
 30
0.0
  3
*Model_Space
  1

  0
ENDBLK
  5
19
330
17
100
AcDbEntity
  8
0
100
AcDbBlockEnd
  0
BLOCK
  5
1C
330
1B
100
AcDbEntity
  8
0
100
AcDbBlockBegin
  2
*Paper_Space
 70
0
 10
0.0
 20
0.0
 30
0.0
  3
*Paper_Space
  1

  0
ENDBLK
  5
1D
330
1B
100
AcDbEntity
  8
0
100
AcDbBlockEnd
  0
ENDSEC
  0
SECTION
  2
ENTITIES
  0
LWPOLYLINE
  5
2F
330
17
100
AcDbEntity
  8
0
100
AcDbPolyline
 90
7
 70
0
 38
806.5
 10
671920.0
 20
7184563.846153846
 10
671928.0
 20
7184556.835964657
 10
671936.0
 20
7184549.856920327
 10
671944.0
 20
7184542.940027344
 10
671952.0
 20
7184536.11601607
 10
671960.0
 20
7184529.415204214
 10
671968.0
 20
7184522.867362132
  0
LWPOLYLINE
  5
30
330
17
100
AcDbEntity
  8
0
100
AcDbPolyline
 90
16
 70
0
 38
807.0
 10
671920.0
 20
7184607.692307692
 10
671928.0
 20
7184600.682118503
 10
671936.0
 20
7184593.703074173
 10
671944.0
 20
7184586.78618119
 10
671952.0
 20
7184579.962169916
 10
671960.0
 20
7184573.26135806
 10
671968.0
 20
7184566.713515978
 10
671976.0
 20
7184560.347734415
 10
671984.0
 20
7184554.192295256
 10
671992.0
 20
7184548.274545876
 10
672000.0
 20
7184542.620777646
 10
672008.0
 20
7184537.256109118
 10
672016.0
 20
7184532.204374434
 10
672024.0
 20
7184527.488017435
 10
672032.0
 20
7184523.127991944
 10
672184.0
 20
7184522.6136091985
  0
LWPOLYLINE
  5
31
330
17
100
AcDbEntity
  8
0
100
AcDbPolyline
 90
34
 70
0
 38
807.5
 10
671920.0
 20
7184651.538461538
 10
671928.0
 20
7184644.528272349
 10
671936.0
 20
7184637.549228019
 10
671944.0
 20
7184630.632335036
 10
671952.0
 20
7184623.808323762
 10
671960.0
 20
7184617.107511906
 10
671968.0
 20
7184610.559669824
 10
671976.0
 20
7184604.193888262
 10
671984.0
 20
7184598.038449102
 10
671992.0
 20
7184592.120699722
 10
672000.0
 20
7184586.466931492
 10
672008.0
 20
7184581.1022629645
 10
672016.0
 20
7184576.05052828
 10
672024.0
 20
7184571.334171281
 10
672032.0
 20
7184566.97414579
 10
672040.0
 20
7184562.989822522
 10
672048.0
 20
7184559.398903023
 10
672056.0
 20
7184556.217341025
 10
672064.0
 20
7184553.459271569
 10
672072.0
 20
7184551.1369482
 10
672080.0
 20
7184549.260688533
 10
672088.0
 20
7184547.838828414
 10
672096.0
 20
7184546.877684878
 10
672104.0
 20
7184546.381528094
 10
672112.0
 20
7184546.3525623875
 10
672120.0
 20
7184546.790916446
 10
672128.0
 20
7184547.694642751
 10
672136.0
 20
7184549.059726228
 10
672144.0
 20
7184550.880102086
 10
672152.0
 20
7184553.147682763
 10
672160.0
 20
7184555.852393854
 10
672168.0
 20
7184558.982218872
 10
672176.0
 20
7184562.523252635
 10
672184.0
 20
7184566.4597630445
  0
LWPOLYLINE
  5
32
330
17
100
AcDbEntity
  8
0
100
AcDbPolyline
 90
34
 70
0
 38
808.0
 10
671920.0
 20
7184695.384615385
 10
671928.0
 20
7184688.374426195
 10
671936.0
 20
7184681.395381866
 10
671944.0
 20
7184674.478488882
 10
671952.0
 20
7184667.654477609
 10
671960.0
 20
7184660.953665753
 10
671968.0
 20
7184654.405823671
 10
671976.0
 20
7184648.040042108
 10
671984.0
 20
7184641.884602948
 10
671992.0
 20
7184635.966853569
 10
672000.0
 20
7184630.313085338
 10
672008.0
 20
7184624.9484168105
 10
672016.0
 20
7184619.896682126
 10
672024.0
 20
7184615.180325127
 10
672032.0
 20
7184610.820299636
 10
672040.0
 20
7184606.835976368
 10
672048.0
 20
7184603.245056869
 10
672056.0
 20
7184600.063494872
 10
672064.0
 20
7184597.305425415
 10
672072.0
 20
7184594.983102046
 10
672080.0
 20
7184593.10684238
 10
672088.0
 20
7184591.68498226
 10
672096.0
 20
7184590.723838724
 10
672104.0
 20
7184590.22768194
 10
672112.0
 20
7184590.1987162335
 10
672120.0
 20
7184590.637070292
 10
672128.0
 20
7184591.540796597
 10
672136.0
 20
7184592.905880074
 10
672144.0
 20
7184594.726255933
 10
672152.0
 20
7184596.99383661
 10
672160.0
 20
7184599.6985477
 10
672168.0
 20
7184602.828372719
 10
672176.0
 20
7184606.369406481
 10
672184.0
 20
7184610.3059168905
  0
LWPOLYLINE
  5
33
330
17
100
AcDbEntity
  8
0
100
AcDbPolyline
 90
34
 70
0
 38
808.5
 10
671920.0
 20
7184739.230769231
 10
671928.0
 20
7184732.220580042
 10
671936.0
 20
7184725.241535712
 10
671944.0
 20
7184718.324642729
 10
671952.0
 20
7184711.500631455
 10
671960.0
 20
7184704.799819599
 10
671968.0
 20
7184698.251977517
 10
671976.0
 20
7184691.886195954
 10
671984.0
 20
7184685.730756794
 10
671992.0
 20
7184679.813007415
 10
672000.0
 20
7184674.159239185
 10
672008.0
 20
7184668.7945706565
 10
672016.0
 20
7184663.742835973
 10
672024.0
 20
7184659.026478973
 10
672032.0
 20
7184654.666453482
 10
672040.0
 20
7184650.682130214
 10
672048.0
 20
7184647.0912107155
 10
672056.0
 20
7184643.909648718
 10
672064.0
 20
7184641.151579262
 10
672072.0
 20
7184638.829255892
 10
672080.0
 20
7184636.952996226
 10
672088.0
 20
7184635.531136106
 10
672096.0
 20
7184634.56999257
 10
672104.0
 20
7184634.073835787
 10
672112.0
 20
7184634.0448700795
 10
672120.0
 20
7184634.483224138
 10
672128.0
 20
7184635.386950443
 10
672136.0
 20
7184636.75203392
 10
672144.0
 20
7184638.572409779
 10
672152.0
 20
7184640.839990456
 10
672160.0
 20
7184643.544701546
 10
672168.0
 20
7184646.674526565
 10
672176.0
 20
7184650.215560328
 10
672184.0
 20
7184654.1520707365
  0
LWPOLYLINE
  5
34
330
17
100
AcDbEntity
  8
0
100
AcDbPolyline
 90
34
 70
0
 38
809.0
 10
671920.0
 20
7184783.076923077
 10
671928.0
 20
7184776.066733888
 10
671936.0
 20
7184769.087689558
 10
671944.0
 20
7184762.170796575
 10
671952.0
 20
7184755.346785301
 10
671960.0
 20
7184748.645973445
 10
671968.0
 20
7184742.098131363
 10
671976.0
 20
7184735.7323498
 10
671984.0
 20
7184729.57691064
 10
671992.0
 20
7184723.659161261
 10
672000.0
 20
7184718.005393031
 10
672008.0
 20
7184712.6407245025
 10
672016.0
 20
7184707.588989819
 10
672024.0
 20
7184702.872632819
 10
672032.0
 20
7184698.512607329
 10
672040.0
 20
7184694.52828406
 10
672048.0
 20
7184690.9373645615
 10
672056.0
 20
7184687.755802564
 10
672064.0
 20
7184684.997733108
 10
672072.0
 20
7184682.675409738
 10
672080.0
 20
7184680.799150072
 10
672088.0
 20
7184679.377289952
 10
672096.0
 20
7184678.416146416
 10
672104.0
 20
7184677.919989633
 10
672112.0
 20
7184677.891023926
 10
672120.0
 20
7184678.329377985
 10
672128.0
 20
7184679.233104289
 10
672136.0
 20
7184680.598187766
 10
672144.0
 20
7184682.418563625
 10
672152.0
 20
7184684.686144302
 10
672160.0
 20
7184687.390855392
 10
672168.0
 20
7184690.520680411
 10
672176.0
 20
7184694.061714174
 10
672184.0
 20
7184697.9982245825
  0
LWPOLYLINE
  5
35
330
17
100
AcDbEntity
  8
0
100
AcDbPolyline
 90
34
 70
0
 38
809.5
 10
671920.0
 20
7184826.923076923
 10
671928.0
 20
7184819.912887734
 10
671936.0
 20
7184812.933843404
 10
671944.0
 20
7184806.016950421
 10
671952.0
 20
7184799.192939147
 10
671960.0
 20
7184792.492127291
 10
671968.0
 20
7184785.944285209
 10
671976.0
 20
7184779.578503646
 10
671984.0
 20
7184773.423064487
 10
671992.0
 20
7184767.505315107
 10
672000.0
 20
7184761.851546877
 10
672008.0
 20
7184756.486878349
 10
672016.0
 20
7184751.435143665
 10
672024.0
 20
7184746.718786665
 10
672032.0
 20
7184742.358761175
 10
672040.0
 20
7184738.374437907
 10
672048.0
 20
7184734.7835184075
 10
672056.0
 20
7184731.60195641
 10
672064.0
 20
7184728.843886954
 10
672072.0
 20
7184726.521563585
 10
672080.0
 20
7184724.645303918
 10
672088.0
 20
7184723.223443798
 10
672096.0
 20
7184722.262300263
 10
672104.0
 20
7184721.766143479
 10
672112.0
 20
7184721.737177772
 10
672120.0
 20
7184722.175531831
 10
672128.0
 20
7184723.0792581355
 10
672136.0
 20
7184724.444341612
 10
672144.0
 20
7184726.264717471
 10
672152.0
 20
7184728.532298148
 10
672160.0
 20
7184731.237009238
 10
672168.0
 20
7184734.366834257
 10
672176.0
 20
7184737.90786802
 10
672184.0
 20
7184741.8443784285
  0
LWPOLYLINE
  5
36
330
17
100
AcDbEntity
  8
0
100
AcDbPolyline
 90
34
 70
0
 38
810.0
 10
671920.0
 20
7184870.769230769
 10
671928.0
 20
7184863.75904158
 10
671936.0
 20
7184856.77999725
 10
671944.0
 20
7184849.863104267
 10
671952.0
 20
7184843.039092993
 10
671960.0
 20
7184836.338281137
 10
671968.0
 20
7184829.790439055
 10
671976.0
 20
7184823.424657492
 10
671984.0
 20
7184817.269218333
 10
671992.0
 20
7184811.351468953
 10
672000.0
 20
7184805.697700723
 10
672008.0
 20
7184800.333032195
 10
672016.0
 20
7184795.281297511
 10
672024.0
 20
7184790.564940512
 10
672032.0
 20
7184786.204915021
 10
672040.0
 20
7184782.220591753
 10
672048.0
 20
7184778.6296722535
 10
672056.0
 20
7184775.448110256
 10
672064.0
 20
7184772.6900408
 10
672072.0
 20
7184770.367717431
 10
672080.0
 20
7184768.491457764
 10
672088.0
 20
7184767.069597645
 10
672096.0
 20
7184766.108454109
 10
672104.0
 20
7184765.612297325
 10
672112.0
 20
7184765.583331618
 10
672120.0
 20
7184766.021685677
 10
672128.0
 20
7184766.9254119815
 10
672136.0
 20
7184768.290495458
 10
672144.0
 20
7184770.110871317
 10
672152.0
 20
7184772.378451994
 10
672160.0
 20
7184775.083163084
 10
672168.0
 20
7184778.212988103
 10
672176.0
 20
7184781.754021866
 10
672184.0
 20
7184785.690532275
  0
LWPOLYLINE
  5
37
330
17
100
AcDbEntity
  8
0
100
AcDbPolyline
 90
34
 70
0
 38
810.5
 10
671920.0
 20
7184914.615384615
 10
671928.0
 20
7184907.605195426
 10
671936.0
 20
7184900.626151096
 10
671944.0
 20
7184893.709258113
 10
671952.0
 20
7184886.885246839
 10
671960.0
 20
7184880.184434983
 10
671968.0
 20
7184873.636592901
 10
671976.0
 20
7184867.270811338
 10
671984.0
 20
7184861.115372179
 10
671992.0
 20
7184855.197622799
 10
672000.0
 20
7184849.543854569
 10
672008.0
 20
7184844.1791860415
 10
672016.0
 20
7184839.127451357
 10
672024.0
 20
7184834.411094358
 10
672032.0
 20
7184830.051068867
 10
672040.0
 20
7184826.066745599
 10
672048.0
 20
7184822.4758261
 10
672056.0
 20
7184819.294264102
 10
672064.0
 20
7184816.536194646
 10
672072.0
 20
7184814.213871277
 10
672080.0
 20
7184812.33761161
 10
672088.0
 20
7184810.915751491
 10
672096.0
 20
7184809.954607955
 10
672104.0
 20
7184809.458451171
 10
672112.0
 20
7184809.4294854645
 10
672120.0
 20
7184809.867839523
 10
672128.0
 20
7184810.771565828
 10
672136.0
 20
7184812.136649304
 10
672144.0
 20
7184813.957025163
 10
672152.0
 20
7184816.22460584
 10
672160.0
 20
7184818.929316931
 10
672168.0
 20
7184822.059141949
 10
672176.0
 20
7184825.600175712
 10
672184.0
 20
7184829.5366861215
  0
LWPOLYLINE
  5
38
330
17
100
AcDbEntity
  8
0
100
AcDbPolyline
 90
34
 70
0
 38
811.0
 10
671920.0
 20
7184958.461538462
 10
671928.0
 20
7184951.451349272
 10
671936.0
 20
7184944.472304942
 10
671944.0
 20
7184937.555411959
 10
671952.0
 20
7184930.731400685
 10
671960.0
 20
7184924.03058883
 10
671968.0
 20
7184917.482746748
 10
671976.0
 20
7184911.116965185
 10
671984.0
 20
7184904.961526025
 10
671992.0
 20
7184899.043776646
 10
672000.0
 20
7184893.390008415
 10
672008.0
 20
7184888.0253398875
 10
672016.0
 20
7184882.973605203
 10
672024.0
 20
7184878.257248204
 10
672032.0
 20
7184873.897222713
 10
672040.0
 20
7184869.912899445
 10
672048.0
 20
7184866.321979946
 10
672056.0
 20
7184863.140417948
 10
672064.0
 20
7184860.382348492
 10
672072.0
 20
7184858.060025123
 10
672080.0
 20
7184856.183765456
 10
672088.0
 20
7184854.761905337
 10
672096.0
 20
7184853.800761801
 10
672104.0
 20
7184853.304605017
 10
672112.0
 20
7184853.2756393105
 10
672120.0
 20
7184853.713993369
 10
672128.0
 20
7184854.617719674
 10
672136.0
 20
7184855.982803151
 10
672144.0
 20
7184857.803179009
 10
672152.0
 20
7184860.070759687
 10
672160.0
 20
7184862.775470777
 10
672168.0
 20
7184865.905295796
 10
672176.0
 20
7184869.446329558
 10
672184.0
 20
7184873.3828399675
  0
LWPOLYLINE
  5
39
330
17
100
AcDbEntity
  8
0
100
AcDbPolyline
 90
34
 70
0
 38
811.5
 10
671920.0
 20
7185002.307692308
 10
671928.0
 20
7184995.297503118
 10
671936.0
 20
7184988.318458789
 10
671944.0
 20
7184981.401565806
 10
671952.0
 20
7184974.577554532
 10
671960.0
 20
7184967.876742676
 10
671968.0
 20
7184961.328900594
 10
671976.0
 20
7184954.963119031
 10
671984.0
 20
7184948.807679871
 10
671992.0
 20
7184942.889930492
 10
672000.0
 20
7184937.236162262
 10
672008.0
 20
7184931.8714937335
 10
672016.0
 20
7184926.81975905
 10
672024.0
 20
7184922.10340205
 10
672032.0
 20
7184917.743376559
 10
672040.0
 20
7184913.759053291
 10
672048.0
 20
7184910.1681337925
 10
672056.0
 20
7184906.986571795
 10
672064.0
 20
7184904.228502338
 10
672072.0
 20
7184901.906178969
 10
672080.0
 20
7184900.029919303
 10
672088.0
 20
7184898.608059183
 10
672096.0
 20
7184897.646915647
 10
672104.0
 20
7184897.150758864
 10
672112.0
 20
7184897.1217931565
 10
672120.0
 20
7184897.560147215
 10
672128.0
 20
7184898.46387352
 10
672136.0
 20
7184899.828956997
 10
672144.0
 20
7184901.649332856
 10
672152.0
 20
7184903.916913533
 10
672160.0
 20
7184906.621624623
 10
672168.0
 20
7184909.751449642
 10
672176.0
 20
7184913.292483405
 10
672184.0
 20
7184917.2289938135
  0
LWPOLYLINE
  5
3A
330
17
100
AcDbEntity
  8
0
100
AcDbPolyline
 90
34
 70
0
 38
812.0
 10
671920.0
 20
7185046.153846154
 10
671928.0
 20
7185039.143656965
 10
671936.0
 20
7185032.164612635
 10
671944.0
 20
7185025.247719652
 10
671952.0
 20
7185018.423708378
 10
671960.0
 20
7185011.722896522
 10
671968.0
 20
7185005.17505444
 10
671976.0
 20
7184998.809272877
 10
671984.0
 20
7184992.653833717
 10
671992.0
 20
7184986.736084338
 10
672000.0
 20
7184981.082316108
 10
672008.0
 20
7184975.7176475795
 10
672016.0
 20
7184970.665912896
 10
672024.0
 20
7184965.949555896
 10
672032.0
 20
7184961.589530405
 10
672040.0
 20
7184957.605207137
 10
672048.0
 20
7184954.0142876385
 10
672056.0
 20
7184950.832725641
 10
672064.0
 20
7184948.074656185
 10
672072.0
 20
7184945.752332815
 10
672080.0
 20
7184943.876073149
 10
672088.0
 20
7184942.454213029
 10
672096.0
 20
7184941.493069493
 10
672104.0
 20
7184940.99691271
 10
672112.0
 20
7184940.967947003
 10
672120.0
 20
7184941.406301062
 10
672128.0
 20
7184942.310027366
 10
672136.0
 20
7184943.675110843
 10
672144.0
 20
7184945.495486702
 10
672152.0
 20
7184947.763067379
 10
672160.0
 20
7184950.467778469
 10
672168.0
 20
7184953.597603488
 10
672176.0
 20
7184957.138637251
 10
672184.0
 20
7184961.0751476595
  0
LWPOLYLINE
  5
3B
330
17
100
AcDbEntity
  8
0
100
AcDbPolyline
 90
34
 70
0
 38
812.5
 10
671920.0
 20
7185090.0
 10
671928.0
 20
7185082.989810811
 10
671936.0
 20
7185076.010766481
 10
671944.0
 20
7185069.093873498
 10
671952.0
 20
7185062.269862224
 10
671960.0
 20
7185055.569050368
 10
671968.0
 20
7185049.021208286
 10
671976.0
 20
7185042.655426723
 10
671984.0
 20
7185036.499987563
 10
671992.0
 20
7185030.582238184
 10
672000.0
 20
7185024.928469954
 10
672008.0
 20
7185019.5638014255
 10
672016.0
 20
7185014.512066742
 10
672024.0
 20
7185009.795709742
 10
672032.0
 20
7185005.435684252
 10
672040.0
 20
7185001.451360983
 10
672048.0
 20
7184997.8604414845
 10
672056.0
 20
7184994.678879487
 10
672064.0
 20
7184991.920810031
 10
672072.0
 20
7184989.598486661
 10
672080.0
 20
7184987.722226995
 10
672088.0
 20
7184986.300366875
 10
672096.0
 20
7184985.33922334
 10
672104.0
 20
7184984.843066556
 10
672112.0
 20
7184984.814100849
 10
672120.0
 20
7184985.252454908
 10
672128.0
 20
7184986.156181212
 10
672136.0
 20
7184987.521264689
 10
672144.0
 20
7184989.341640548
 10
672152.0
 20
7184991.609221225
 10
672160.0
 20
7184994.313932315
 10
672168.0
 20
7184997.443757334
 10
672176.0
 20
7185000.984791097
 10
672184.0
 20
7185004.9213015055
  0
LWPOLYLINE
  5
3C
330
17
100
AcDbEntity
  8
0
100
AcDbPolyline
 90
27
 70
0
 38
813.0
 10
671976.0
 20
7185086.501580569
 10
671984.0
 20
7185080.34614141
 10
671992.0
 20
7185074.42839203
 10
672000.0
 20
7185068.7746238
 10
672008.0
 20
7185063.409955272
 10
672016.0
 20
7185058.358220588
 10
672024.0
 20
7185053.641863589
 10
672032.0
 20
7185049.281838098
 10
672040.0
 20
7185045.29751483
 10
672048.0
 20
7185041.7065953305
 10
672056.0
 20
7185038.525033333
 10
672064.0
 20
7185035.766963877
 10
672072.0
 20
7185033.444640508
 10
672080.0
 20
7185031.568380841
 10
672088.0
 20
7185030.146520721
 10
672096.0
 20
7185029.185377186
 10
672104.0
 20
7185028.689220402
 10
672112.0
 20
7185028.660254695
 10
672120.0
 20
7185029.098608754
 10
672128.0
 20
7185030.0023350585
 10
672136.0
 20
7185031.367418535
 10
672144.0
 20
7185033.187794394
 10
672152.0
 20
7185035.455375071
 10
672160.0
 20
7185038.160086161
 10
672168.0
 20
7185041.28991118
 10
672176.0
 20
7185044.830944943
 10
672184.0
 20
7185048.767455352
  0
ENDSEC
  0
SECTION
  2
OBJECTS
  0
DICTIONARY
  5
A
330
0
100
AcDbDictionary
281
1
  3
ACAD_COLOR
350
B
  3
ACAD_GROUP
350
C
  3
ACAD_LAYOUT
350
D
  3
ACAD_MATERIAL
350
E
  3
ACAD_MLEADERSTYLE
350
F
  3
ACAD_MLINESTYLE
350
10
  3
ACAD_PLOTSETTINGS
350
11
  3
ACAD_PLOTSTYLENAME
350
12
  3
ACAD_SCALELIST
350
14
  3
ACAD_TABLESTYLE
350
15
  3
ACAD_VISUALSTYLE
350
16
  3
EZDXF_META
350
2D
  0
DICTIONARY
  5
B
330
A
100
AcDbDictionary
281
1
  0
DICTIONARY
  5
C
330
A
100
AcDbDictionary
281
1
  0
DICTIONARY
  5
D
330
A
100
AcDbDictionary
281
1
  3
Model
350
1A
  3
Layout1
350
1E
  0
DICTIONARY
  5
E
330
A
100
AcDbDictionary
281
1
  3
ByBlock
350
1F
  3
ByLayer
350
20
  3
Global
350
21
  0
DICTIONARY
  5
F
330
A
100
AcDbDictionary
281
1
  3
Standard
350
2C
  0
DICTIONARY
  5
10
330
A
100
AcDbDictionary
281
1
  3
Standard
350
22
  0
DICTIONARY
  5
11
330
A
100
AcDbDictionary
281
1
  0
ACDBDICTIONARYWDFLT
  5
12
330
A
100
AcDbDictionary
281
1
  3
Normal
350
13
100
AcDbDictionaryWithDefault
340
13
  0
ACDBPLACEHOLDER
  5
13
330
12
  0
DICTIONARY
  5
14
330
A
100
AcDbDictionary
281
1
  0
DICTIONARY
  5
15
330
A
100
AcDbDictionary
281
1
  0
DICTIONARY
  5
16
330
A
100
AcDbDictionary
281
1
  0
LAYOUT
  5
1A
330
D
100
AcDbPlotSettings
  1

  4
A3
  6

 40
7.5
 41
20.0
 42
7.5
 43
20.0
 44
420.0
 45
297.0
 46
0.0
 47
0.0
 48
0.0
 49
0.0
140
0.0
141
0.0
142
1.0
143
1.0
 70
1024
 72
1
 73
0
 74
5
  7

 75
16
 76
0
 77
2
 78
300
147
1.0
148
0.0
149
0.0
100
AcDbLayout
  1
Model
 70
1
 71
0
 10
0.0
 20
0.0
 11
420.0
 21
297.0
 12
0.0
 22
0.0
 32
0.0
 14
1e+20
 24
1e+20
 34
1e+20
 15
-1e+20
 25
-1e+20
 35
-1e+20
146
0.0
 13
0.0
 23
0.0
 33
0.0
 16
1.0
 26
0.0
 36
0.0
 17
0.0
 27
1.0
 37
0.0
 76
1
330
17
  0
LAYOUT
  5
1E
330
D
100
AcDbPlotSettings
  1

  4
A3
  6

 40
7.5
 41
20.0
 42
7.5
 43
20.0
 44
420.0
 45
297.0
 46
0.0
 47
0.0
 48
0.0
 49
0.0
140
0.0
141
0.0
142
1.0
143
1.0
 70
0
 72
1
 73
0
 74
5
  7

 75
16
 76
0
 77
2
 78
300
147
1.0
148
0.0
149
0.0
100
AcDbLayout
  1
Layout1
 70
1
 71
1
 10
0.0
 20
0.0
 11
420.0
 21
297.0
 12
0.0
 22
0.0
 32
0.0
 14
1e+20
 24
1e+20
 34
1e+20
 15
-1e+20
 25
-1e+20
 35
-1e+20
146
0.0
 13
0.0
 23
0.0
 33
0.0
 16
1.0
 26
0.0
 36
0.0
 17
0.0
 27
1.0
 37
0.0
 76
1
330
1B
  0
MATERIAL
  5
1F
102
{ACAD_REACTORS
330
E
102
}
330
E
100
AcDbMaterial
  1
ByBlock
  2

 70
0
 40
1.0
 71
1
 41
1.0
 91
-1023410177
 42
1.0
 72
1
  3

 73
1
 74
1
 75
1
 44
0.5
 73
0
 45
1.0
 46
1.0
 77
1
  4

 78
1
 79
1
170
1
 48
1.0
171
1
  6

172
1
173
1
174
1
140
1.0
141
1.0
175
1
  7

176
1
177
1
178
1
143
1.0
179
1
  8

270
1
271
1
272
1
145
1.0
146
1.0
273
1
  9

274
1
275
1
276
1
 42
1.0
 72
1
  3

 73
1
 74
1
 75
1
 94
63
  0
MATERIAL
  5
20
102
{ACAD_REACTORS
330
E
102
}
330
E
100
AcDbMaterial
  1
ByLayer
  2

 70
0
 40
1.0
 71
1
 41
1.0
 91
-1023410177
 42
1.0
 72
1
  3

 73
1
 74
1
 75
1
 44
0.5
 73
0
 45
1.0
 46
1.0
 77
1
  4

 78
1
 79
1
170
1
 48
1.0
171
1
  6

172
1
173
1
174
1
140
1.0
141
1.0
175
1
  7

176
1
177
1
178
1
143
1.0
179
1
  8

270
1
271
1
272
1
145
1.0
146
1.0
273
1
  9

274
1
275
1
276
1
 42
1.0
 72
1
  3

 73
1
 74
1
 75
1
 94
63
  0
MATERIAL
  5
21
102
{ACAD_REACTORS
330
E
102
}
330
E
100
AcDbMaterial
  1
Global
  2

 70
0
 40
1.0
 71
1
 41
1.0
 91
-1023410177
 42
1.0
 72
1
  3

 73
1
 74
1
 75
1
 44
0.5
 73
0
 45
1.0
 46
1.0
 77
1
  4

 78
1
 79
1
170
1
 48
1.0
171
1
  6

172
1
173
1
174
1
140
1.0
141
1.0
175
1
  7

176
1
177
1
178
1
143
1.0
179
1
  8

270
1
271
1
272
1
145
1.0
146
1.0
273
1
  9

274
1
275
1
276
1
 42
1.0
 72
1
  3

 73
1
 74
1
 75
1
 94
63
  0
MLINESTYLE
  5
22
102
{ACAD_REACTORS
330
10
102
}
330
10
100
AcDbMlineStyle
  2
Standard
 70
0
  3

 62
256
 51
90.0
 52
90.0
 71
2
 49
0.5
 62
256
  6
BYLAYER
 49
-0.5
 62
256
  6
BYLAYER
  0
MLEADERSTYLE
  5
2C
102
{ACAD_REACTORS
330
F
102
}
330
F
100
AcDbMLeaderStyle
179
2
170
2
171
1
172
0
 90
2
 40
0.0
 41
0.0
173
1
 91
-1056964608
 92
-2
290
1
 42
2.0
291
1
 43
8.0
  3
Standard
 44
4.0
300

342
29
174
1
175
1
176
0
178
1
 93
-1056964608
 45
4.0
292
0
297
0
 46
4.0
 94
-1056964608
 47
1.0
 49
1.0
140
1.0
294
1
141
0.0
177
0
142
1.0
295
0
296
0
143
3.75
271
0
272
9
273
9
  0
DICTIONARY
  5
2D
330
A
100
AcDbDictionary
280
1
281
1
  3
CREATED_BY_EZDXF
350
2E
  3
WRITTEN_BY_EZDXF
350
3F
  0
DICTIONARYVAR
  5
2E
330
2D
100
DictionaryVariables
280
0
  1
1.4.4 @ 2026-08-25T18:40:08.193424+00:00
  0
DICTIONARYVAR
  5
3F
330
2D
100
DictionaryVariables
280
0
  1
1.4.4 @ 2026-08-25T18:40:08.197151+00:00
  0
ENDSEC
  0
EOF
